<svg width="24" height="24" viewBox="0 0 24 24" fill="none" xmlns="http://www.w3.org/2000/svg">
<path d="M2 8.70833C2 6.33546 2 5.14902 2.46911 4.24594C2.86443 3.48493 3.48493 2.86443 4.24594 2.46911C5.14902 2 6.33546 2 8.70833 2H15.2917C17.6645 2 18.851 2 19.7541 2.46911C20.5151 2.86443 21.1356 3.48493 21.5309 4.24594C22 5.14902 22 6.33546 22 8.70833V15.2917C22 17.6645 22 18.851 21.5309 19.7541C21.1356 20.5151 20.5151 21.1356 19.7541 21.5309C18.851 22 17.6645 22 15.2917 22H8.70833C6.33546 22 5.14902 22 4.24594 21.5309C3.48493 21.1356 2.86443 20.5151 2.46911 19.7541C2 18.851 2 17.6645 2 15.2917V8.70833Z" fill="#1877F2"/>
<path d="M15.8895 14.7776L16.334 11.9998H13.6673V10.0553C13.6673 9.27756 13.9451 8.66645 15.1673 8.66645H16.4451V6.11089C15.7229 5.99978 14.9451 5.88867 14.2229 5.88867C11.9451 5.88867 10.334 7.27756 10.334 9.77756V11.9998H7.83398V14.7776H10.334V21.9998C11.4451 21.9998 12.5562 21.9998 13.6673 21.9998V14.7776H15.8895Z" fill="white"/>
</svg>
