<svg width="24" height="24" viewBox="0 0 24 24" fill="none" xmlns="http://www.w3.org/2000/svg">
<g clip-path="url(#clip0_8902_71836)">
<path d="M2.01172 8.70833C2.01172 6.33546 2.01172 5.14902 2.48083 4.24594C2.87614 3.48493 3.49665 2.86443 4.25766 2.46911C5.16073 2 6.34717 2 8.72005 2H15.3034C17.6763 2 18.8627 2 19.7658 2.46911C20.5268 2.86443 21.1473 3.48493 21.5426 4.24594C22.0117 5.14902 22.0117 6.33546 22.0117 8.70833V15.2917C22.0117 17.6645 22.0117 18.851 21.5426 19.7541C21.1473 20.5151 20.5268 21.1356 19.7658 21.5309C18.8627 22 17.6763 22 15.3034 22H8.72005C6.34717 22 5.16073 22 4.25766 21.5309C3.49665 21.1356 2.87614 20.5151 2.48083 19.7541C2.01172 18.851 2.01172 17.6645 2.01172 15.2917V8.70833Z" fill="url(#paint0_radial_8902_71836)"/>
<path d="M2.01172 8.70833C2.01172 6.33546 2.01172 5.14902 2.48083 4.24594C2.87614 3.48493 3.49665 2.86443 4.25766 2.46911C5.16073 2 6.34717 2 8.72005 2H15.3034C17.6763 2 18.8627 2 19.7658 2.46911C20.5268 2.86443 21.1473 3.48493 21.5426 4.24594C22.0117 5.14902 22.0117 6.33546 22.0117 8.70833V15.2917C22.0117 17.6645 22.0117 18.851 21.5426 19.7541C21.1473 20.5151 20.5268 21.1356 19.7658 21.5309C18.8627 22 17.6763 22 15.3034 22H8.72005C6.34717 22 5.16073 22 4.25766 21.5309C3.49665 21.1356 2.87614 20.5151 2.48083 19.7541C2.01172 18.851 2.01172 17.6645 2.01172 15.2917V8.70833Z" fill="url(#paint1_radial_8902_71836)"/>
<path d="M11.9997 4.72754C10.0246 4.72754 9.77671 4.73618 9.00098 4.77148C8.22676 4.80693 7.69829 4.92951 7.23588 5.10936C6.75756 5.29511 6.35182 5.5436 5.94759 5.94799C5.54305 6.35224 5.29458 6.75799 5.10822 7.23618C4.92792 7.69875 4.8052 8.22739 4.77035 9.00133C4.73565 9.77708 4.72656 10.0251 4.72656 12.0003C4.72656 13.9754 4.73535 14.2225 4.7705 14.9983C4.80611 15.7725 4.92868 16.301 5.10837 16.7634C5.29427 17.2418 5.54275 17.6475 5.94713 18.0518C6.35121 18.4563 6.75695 18.7054 7.23497 18.8912C7.69768 19.071 8.2263 19.1936 9.00037 19.2291C9.77611 19.2644 10.0238 19.273 11.9988 19.273C13.974 19.273 14.2211 19.2644 14.9969 19.2291C15.7711 19.1936 16.3001 19.071 16.7629 18.8912C17.241 18.7054 17.6462 18.4563 18.0502 18.0518C18.4548 17.6475 18.7033 17.2418 18.8896 16.7636C19.0684 16.301 19.1911 15.7724 19.2275 14.9984C19.2623 14.2227 19.2714 13.9754 19.2714 12.0003C19.2714 10.0251 19.2623 9.77724 19.2275 9.00148C19.1911 8.22724 19.0684 7.69875 18.8896 7.23633C18.7033 6.75799 18.4548 6.35224 18.0502 5.94799C17.6457 5.54345 17.2412 5.29496 16.7624 5.10936C16.2988 4.92951 15.77 4.80693 14.9958 4.77148C14.2201 4.73618 13.9731 4.72754 11.9974 4.72754H11.9997ZM11.3473 6.03814C11.5409 6.03784 11.757 6.03814 11.9997 6.03814C13.9414 6.03814 14.1716 6.04511 14.9384 6.07996C15.6474 6.11239 16.0323 6.23087 16.2886 6.33042C16.628 6.46224 16.87 6.61981 17.1244 6.87436C17.3789 7.1289 17.5365 7.37133 17.6686 7.71072C17.7681 7.96678 17.8868 8.35163 17.919 9.06072C17.9539 9.82739 17.9615 10.0577 17.9615 11.9986C17.9615 13.9395 17.9539 14.1698 17.919 14.9365C17.8866 15.6456 17.7681 16.0304 17.6686 16.2865C17.5368 16.6259 17.3789 16.8675 17.1244 17.1219C16.8698 17.3765 16.6282 17.5341 16.2886 17.6659C16.0326 17.7659 15.6474 17.8841 14.9384 17.9165C14.1717 17.9513 13.9414 17.9589 11.9997 17.9589C10.0578 17.9589 9.82762 17.9513 9.06098 17.9165C8.35191 17.8837 7.96707 17.7653 7.71056 17.6657C7.37118 17.5339 7.12876 17.3763 6.87422 17.1218C6.61969 16.8672 6.46212 16.6254 6.33 16.2859C6.23046 16.0298 6.11182 15.645 6.07955 14.9359C6.0447 14.1692 6.03773 13.9389 6.03773 11.9968C6.03773 10.0547 6.0447 9.82557 6.07955 9.0589C6.11197 8.34981 6.23046 7.96496 6.33 7.7086C6.46181 7.36921 6.61969 7.12678 6.87422 6.87224C7.12876 6.61769 7.37118 6.46011 7.71056 6.32799C7.96692 6.22799 8.35191 6.10981 9.06098 6.07724C9.73186 6.04693 9.99186 6.03784 11.3473 6.03633V6.03814ZM15.8817 7.24572C15.3999 7.24572 15.009 7.63617 15.009 8.11814C15.009 8.59996 15.3999 8.99087 15.8817 8.99087C16.3635 8.99087 16.7544 8.59996 16.7544 8.11814C16.7544 7.63633 16.3635 7.24542 15.8817 7.24542V7.24572ZM11.9997 8.26542C9.93716 8.26542 8.26494 9.93769 8.26494 12.0003C8.26494 14.0628 9.93716 15.7344 11.9997 15.7344C14.0622 15.7344 15.7338 14.0628 15.7338 12.0003C15.7338 9.93769 14.062 8.26542 11.9995 8.26542H11.9997ZM11.9997 9.57602C13.3384 9.57602 14.4238 10.6613 14.4238 12.0003C14.4238 13.3391 13.3384 14.4245 11.9997 14.4245C10.6608 14.4245 9.57551 13.3391 9.57551 12.0003C9.57551 10.6613 10.6608 9.57602 11.9997 9.57602V9.57602Z" fill="white"/>
</g>
<defs>
<radialGradient id="paint0_radial_8902_71836" cx="0" cy="0" r="1" gradientUnits="userSpaceOnUse" gradientTransform="translate(7.32424 23.5404) rotate(-90) scale(19.8215 18.4355)">
<stop stop-color="#FFDD55"/>
<stop offset="0.1" stop-color="#FFDD55"/>
<stop offset="0.5" stop-color="#FF543E"/>
<stop offset="1" stop-color="#C837AB"/>
</radialGradient>
<radialGradient id="paint1_radial_8902_71836" cx="0" cy="0" r="1" gradientUnits="userSpaceOnUse" gradientTransform="translate(-1.33839 3.44077) rotate(78.6806) scale(8.86028 36.5225)">
<stop stop-color="#3771C8"/>
<stop offset="0.128" stop-color="#3771C8"/>
<stop offset="1" stop-color="#6600FF" stop-opacity="0"/>
</radialGradient>
<clipPath id="clip0_8902_71836">
<rect width="20" height="20" fill="white" transform="translate(2 2)"/>
</clipPath>
</defs>
</svg>
