<svg width="24" height="24" viewBox="0 0 24 24" fill="none" xmlns="http://www.w3.org/2000/svg">
<rect x="2" y="2" width="20" height="20" rx="4" fill="#FF0000"/>
<path d="M19.6704 8.15229C19.4859 7.46695 18.9456 6.92659 18.2602 6.74208C17.0082 6.39941 12 6.39941 12 6.39941C12 6.39941 6.99175 6.39941 5.7397 6.7289C5.06754 6.91342 4.514 7.46695 4.32949 8.15229C4 9.40434 4 12.0007 4 12.0007C4 12.0007 4 14.6103 4.32949 15.8491C4.514 16.5345 5.05436 17.0748 5.7397 17.2593C7.00493 17.602 12 17.602 12 17.602C12 17.602 17.0082 17.602 18.2602 17.2725C18.9456 17.088 19.4859 16.5476 19.6704 15.8623C19.9999 14.6103 19.9999 12.0139 19.9999 12.0139C19.9999 12.0139 20.0131 9.40434 19.6704 8.15229Z" fill="white"/>
<path d="M10.4062 14.3081L14.571 11.9094L10.4062 9.51074V14.3081Z" fill="#FF0000"/>
</svg>
